<svg width="118" height="22" viewBox="0 0 118 22" fill="none" xmlns="http://www.w3.org/2000/svg">
<path fill-rule="evenodd" clip-rule="evenodd" d="M96.4837 0.301758L91.24 9.44319L85.9922 0.301758H82.2178L89.347 12.7419V20.9315H93.1391V12.749L100.273 0.301758H96.4837Z" fill="#100F20"/>
<path fill-rule="evenodd" clip-rule="evenodd" d="M12.3057 0.301758V8.87788H3.50799V0.301758H0V20.9315H3.50799V12.3561H12.3057V20.9315H15.8137V0.301758H12.3057Z" fill="#100F20"/>
<path fill-rule="evenodd" clip-rule="evenodd" d="M42.9993 0.302734V3.78025H52.3136L42.6782 20.9321H57.9222V17.4535H48.6475L58.2538 0.302734H42.9993Z" fill="#100F20"/>
<path fill-rule="evenodd" clip-rule="evenodd" d="M31.5132 0.303711H28.1482H28.0712L20.2368 20.932H23.6112L25.3337 16.4069L25.5533 15.8345H34.1077L34.3276 16.4069L36.0501 20.932H39.4245L31.5902 0.303711H31.5132ZM29.8306 4.68848L32.7737 12.3558H26.8882L29.8306 4.68848Z" fill="#100F20"/>
<path fill-rule="evenodd" clip-rule="evenodd" d="M62.9457 0.302734V3.78025H72.2607L62.625 20.9321H77.8693V17.4535H68.5943L78.2006 0.302734H62.9457Z" fill="#100F20"/>
<path fill-rule="evenodd" clip-rule="evenodd" d="M113.534 9.60684L110.591 8.42647C108.861 7.77512 107.226 7.16042 107.226 5.53073C107.226 4.02112 108.551 3.08318 110.681 3.08318C112.39 3.08318 113.857 3.64737 115.298 4.85692L115.415 4.9542L117.391 2.69783L117.281 2.59308C115.562 0.945046 113.156 0 110.681 0C106.577 0 103.48 2.46026 103.48 5.72303C103.48 8.15261 104.983 9.98247 107.945 11.161L110.914 12.3672L111.005 12.4042C112.89 13.1869 114.252 13.7533 114.252 15.456C114.252 17.1175 112.761 18.15 110.362 18.15C108.413 18.15 106.319 17.2738 104.761 15.8065L104.646 15.6991L102.456 18.1239L102.568 18.2301C104.566 20.1385 107.385 21.2347 110.303 21.2347C114.834 21.2347 118 18.7561 118 15.2094C118 11.8288 115.613 10.4393 113.534 9.60684Z" fill="#100F20"/>
</svg>
