<svg width="53" height="53" viewBox="0 0 53 53" fill="none" xmlns="http://www.w3.org/2000/svg">
<path d="M0 26.5C0 7.155 7.155 0 26.5 0C45.845 0 53 7.155 53 26.5C53 45.845 45.845 53 26.5 53C7.155 53 0 45.845 0 26.5Z" fill="#100F20"/>
<g clip-path="url(#clip0_1773_1647)">
<path d="M36.2372 26.2063L34.6601 23.4629H33.5293L35.6682 27.1986V29.6551H36.8063V27.1986L38.9476 23.4629H37.8095L36.2372 26.2063Z" fill="white"/>
<path d="M12.5475 29.6551H13.5998V23.4629H12.5475V26.0385H9.90579V23.4629H8.85352V29.6551H9.90579V27.0819H12.5475V29.6551Z" fill="white"/>
<path d="M21.7578 23.4629V24.5087H24.554L21.6621 29.6551H26.2367V28.6117H23.4527L26.3372 23.4629H21.7578Z" fill="white"/>
<path d="M18.3333 23.4658H18.3112H17.3006H17.2761L14.9238 29.658H15.9369L16.4569 28.2984L16.5231 28.1258H19.0912L19.155 28.2984L19.6725 29.6556H20.6856L18.3333 23.4658ZM16.9229 27.0824L17.8059 24.7816L18.689 27.0824H16.9229Z" fill="white"/>
<path d="M27.7456 23.4629V24.5087H30.5394L27.6475 29.6551H32.222V28.6117H29.4405L32.3226 23.4629H27.7456Z" fill="white"/>
<path d="M42.9257 26.2575L42.0426 25.9024C41.5226 25.7079 41.0321 25.523 41.0321 25.0342C41.0321 24.5818 41.4294 24.2997 42.0696 24.2997C42.5823 24.2997 43.0213 24.4699 43.4555 24.8323L43.4898 24.8615L44.0834 24.1854L44.0515 24.1513C43.5364 23.6576 42.8128 23.373 42.0696 23.373C40.8383 23.373 39.9087 24.1124 39.9087 25.0901C39.9087 25.8198 40.36 26.3694 41.2504 26.7221L42.1408 27.0845L42.1677 27.0966C42.7344 27.3301 43.1415 27.5003 43.1415 28.0111C43.1415 28.5097 42.6951 28.8185 41.974 28.8185C41.3877 28.8185 40.7598 28.5559 40.2913 28.1157L40.257 28.0841L39.5996 28.8113L39.6339 28.8429C40.2324 29.4144 41.0787 29.7452 41.9543 29.7452C43.3157 29.7452 44.2649 29.001 44.2649 27.9357C44.2674 26.9239 43.5512 26.5056 42.9257 26.2575Z" fill="white"/>
</g>
<defs>
<clipPath id="clip0_1773_1647">
<rect width="35.4143" height="6.37457" fill="white" transform="translate(8.85352 23.373)"/>
</clipPath>
</defs>
</svg>
