<svg width="81" height="36" viewBox="0 0 81 36" fill="none" xmlns="http://www.w3.org/2000/svg">
<path fill-rule="evenodd" clip-rule="evenodd" d="M66.2304 11.0089L62.6309 17.3376L59.0285 11.0089H56.4377L61.3314 19.6213V25.291H63.9345V19.6262L68.8313 11.0089H66.2304Z" fill="#100F20"/>
<path fill-rule="evenodd" clip-rule="evenodd" d="M8.44713 11.0089V16.9462H2.40803V11.0089H0V25.291H2.40803V19.3542H8.44713V25.291H10.8552V11.0089H8.44713Z" fill="#100F20"/>
<path fill-rule="evenodd" clip-rule="evenodd" d="M29.5166 11.0093V13.4168H35.9103L29.2961 25.2912H39.7602V22.8829H33.3937L39.9879 11.0093H29.5166Z" fill="#100F20"/>
<path fill-rule="evenodd" clip-rule="evenodd" d="M21.6318 11.01H19.322H19.2691L13.8913 25.2911H16.2076L17.39 22.1584L17.5408 21.7621H23.4128L23.5638 22.1584L24.7462 25.2911H27.0625L21.6847 11.01H21.6318ZM20.4768 14.0459L22.4971 19.3541H18.457L20.4768 14.0459Z" fill="#100F20"/>
<path fill-rule="evenodd" clip-rule="evenodd" d="M43.2085 11.0093V13.4168H49.6027L42.9883 25.2912H53.4527V22.8829H47.0859L53.6801 11.0093H43.2085Z" fill="#100F20"/>
<path fill-rule="evenodd" clip-rule="evenodd" d="M77.9344 17.4509L75.9141 16.6337C74.7266 16.1828 73.6045 15.7572 73.6045 14.629C73.6045 13.5838 74.5142 12.9345 75.976 12.9345C77.1491 12.9345 78.1559 13.3251 79.1456 14.1625L79.2256 14.2298L80.5818 12.6677L80.5064 12.5952C79.3266 11.4543 77.6749 10.8 75.976 10.8C73.159 10.8 71.0331 12.5032 71.0331 14.7621C71.0331 16.4441 72.0647 17.7109 74.0982 18.5268L76.1361 19.3619L76.1983 19.3875C77.4925 19.9294 78.4276 20.3215 78.4276 21.5003C78.4276 22.6505 77.4037 23.3654 75.7569 23.3654C74.4191 23.3654 72.9821 22.7588 71.9124 21.743L71.8334 21.6686L70.3301 23.3473L70.407 23.4208C71.7782 24.742 73.7136 25.5009 75.7168 25.5009C78.827 25.5009 81.0001 23.785 81.0001 21.3296C81.0001 18.9891 79.3618 18.0272 77.9344 17.4509" fill="#100F20"/>
</svg>
